<svg width="280" height="164" viewBox="0 0 280 164" fill="none" xmlns="http://www.w3.org/2000/svg">
<path d="M-412.305 110.479C-376.734 96.6653 -340.335 93.9529 -303.109 102.342C-265.884 110.731 -229.485 108.018 -193.914 94.2046C-158.342 80.3907 -121.944 77.6783 -84.7176 86.0673C-47.4917 94.4563 -11.0931 91.7438 24.4783 77.93C60.0496 64.1161 96.4483 61.4037 133.674 69.7927C170.9 78.1817 207.299 75.4692 242.87 61.6554C278.441 47.8416 314.84 45.1291 352.066 53.5181C389.292 61.9071 425.691 59.1947 461.262 45.3808C496.833 31.567 533.232 28.8546 570.458 37.2435C607.684 45.6325 644.082 42.9201 679.654 29.1063C715.225 15.2924 751.624 12.58 788.85 20.969C826.076 29.358 862.474 26.6455 898.046 12.8317C933.617 -0.982151 970.016 -3.69458 1007.24 4.6944C1044.47 13.0834 1080.87 10.371 1116.44 -3.44289C1152.01 -17.2567 1188.41 -19.9692 1225.63 -11.5802C1262.86 -3.19119 1299.26 -5.90362 1334.83 -19.7175C1370.4 -33.5313 1406.8 -36.2437 1444.03 -27.8547C1481.25 -19.4658 1517.65 -22.1782 1553.22 -35.992C1588.79 -49.8059 1625.19 -52.5183 1662.42 -44.1293C1699.64 -35.7403 1736.04 -38.4528 1771.61 -52.2666" stroke="#F2F7FF" stroke-opacity="0.1"/>
<path d="M-411.59 120.086C-376.018 106.272 -339.62 103.56 -302.394 111.949C-265.168 120.338 -228.769 117.625 -193.198 103.811C-157.626 89.9977 -121.228 87.2852 -84.0018 95.6742C-46.7759 104.063 -10.3772 101.351 25.1941 87.5369C60.7655 73.7231 97.1641 71.0107 134.39 79.3996C171.616 87.7886 208.015 85.0762 243.586 71.2623C279.157 57.4485 315.556 54.7361 352.782 63.1251C390.008 71.514 426.406 68.8016 461.978 54.9878C497.549 41.1739 533.948 38.4615 571.174 46.8505C608.4 55.2395 644.798 52.527 680.37 38.7132C715.941 24.8994 752.34 22.1869 789.565 30.5759C826.791 38.9649 863.19 36.2525 898.761 22.4386C934.333 8.62478 970.731 5.91235 1007.96 14.3013C1045.18 22.6903 1081.58 19.9779 1117.15 6.16405C1152.72 -7.64979 1189.12 -10.3622 1226.35 -1.97324C1263.57 6.41574 1299.97 3.70331 1335.54 -10.1105C1371.12 -23.9244 1407.51 -26.6368 1444.74 -18.2478C1481.97 -9.85883 1518.37 -12.5713 1553.94 -26.3851C1589.51 -40.1989 1625.91 -42.9114 1663.13 -34.5224C1700.36 -26.1334 1736.76 -28.8458 1772.33 -42.6597" stroke="#F2F7FF" stroke-opacity="0.1"/>
<path d="M-410.874 129.693C-375.302 115.879 -338.904 113.166 -301.678 121.555C-264.452 129.944 -228.053 127.232 -192.482 113.418C-156.911 99.6041 -120.512 96.8917 -83.286 105.281C-46.0601 113.67 -9.66147 110.957 25.9099 97.1434C61.4812 83.3295 97.8799 80.6171 135.106 89.0061C172.332 97.3951 208.73 94.6826 244.302 80.8688C279.873 67.055 316.272 64.3425 353.498 72.7315C390.723 81.1205 427.122 78.4081 462.693 64.5942C498.265 50.7804 534.663 48.068 571.889 56.4569C609.115 64.8459 645.514 62.1335 681.085 48.3196C716.657 34.5058 753.055 31.7934 790.281 40.1824C827.507 48.5713 863.906 45.8589 899.477 32.0451C935.048 18.2312 971.447 15.5188 1008.67 23.9078C1045.9 32.2968 1082.3 29.5843 1117.87 15.7705C1153.44 1.95667 1189.84 -0.755763 1227.06 7.63322C1264.29 16.0222 1300.69 13.3098 1336.26 -0.504068C1371.83 -14.3179 1408.23 -17.0303 1445.46 -8.64135C1482.68 -0.252374 1519.08 -2.9648 1554.65 -16.7786C1590.22 -30.5925 1626.62 -33.3049 1663.85 -24.9159C1701.07 -16.5269 1737.47 -19.2394 1773.04 -33.0532" stroke="#F2F7FF" stroke-opacity="0.1"/>
<path d="M-410.158 139.299C-374.587 125.486 -338.188 122.773 -300.962 131.162C-263.736 139.551 -227.337 136.839 -191.766 123.025C-156.195 109.211 -119.796 106.499 -82.5702 114.888C-45.3442 123.277 -8.94561 120.564 26.6257 106.75C62.1971 92.9365 98.5957 90.224 135.822 98.613C173.048 107.002 209.446 104.29 245.018 90.4757C280.589 76.6619 316.988 73.9495 354.213 82.3384C391.439 90.7274 427.838 88.015 463.409 74.2011C498.981 60.3873 535.379 57.6749 572.605 66.0639C609.831 74.4528 646.23 71.7404 681.801 57.9266C717.373 44.1127 753.771 41.4003 790.997 49.7893C828.223 58.1783 864.622 55.4658 900.193 41.652C935.764 27.8382 972.163 25.1257 1009.39 33.5147C1046.61 41.9037 1083.01 39.1913 1118.58 25.3774C1154.16 11.5636 1190.55 8.85116 1227.78 17.2401C1265.01 25.6291 1301.41 22.9167 1336.98 9.10285C1372.55 -4.71099 1408.95 -7.42342 1446.17 0.965564C1483.4 9.35454 1519.8 6.64212 1555.37 -7.17172C1590.94 -20.9856 1627.34 -23.698 1664.56 -15.309C1701.79 -6.92003 1738.19 -9.63246 1773.76 -23.4463" stroke="#F2F7FF" stroke-opacity="0.1"/>
<path d="M-409.442 148.906C-373.87 135.093 -337.472 132.38 -300.246 140.769C-263.02 149.158 -226.621 146.446 -191.05 132.632C-155.478 118.818 -119.08 116.106 -81.8538 124.495C-44.6279 132.883 -8.2293 130.171 27.3421 116.357C62.9134 102.543 99.312 99.831 136.538 108.22C173.764 116.609 210.163 113.896 245.734 100.083C281.305 86.2688 317.704 83.5564 354.93 91.9454C392.156 100.334 428.554 97.6219 464.126 83.8081C499.697 69.9942 536.096 67.2818 573.322 75.6708C610.547 84.0598 646.946 81.3473 682.517 67.5335C718.089 53.7197 754.487 51.0072 791.713 59.3962C828.939 67.7852 865.338 65.0728 900.909 51.2589C936.481 37.4451 972.879 34.7327 1010.11 43.1216C1047.33 51.5106 1083.73 48.7982 1119.3 34.9844C1154.87 21.1705 1191.27 18.4581 1228.5 26.8471C1265.72 35.2361 1302.12 32.5236 1337.69 18.7098C1373.26 4.89595 1409.66 2.18352 1446.89 10.5725C1484.11 18.9615 1520.51 16.249 1556.08 2.43521C1591.66 -11.3786 1628.05 -14.0911 1665.28 -5.70208C1702.51 2.6869 1738.91 -0.0255254 1774.48 -13.8394" stroke="#F2F7FF" stroke-opacity="0.1"/>
<path d="M-408.726 158.513C-373.154 144.699 -336.756 141.987 -299.53 150.376C-262.304 158.765 -225.905 156.052 -190.334 142.238C-154.763 128.425 -118.364 125.712 -81.138 134.101C-43.9121 142.49 -7.51348 139.778 28.0579 125.964C63.6292 112.15 100.028 109.438 137.254 117.827C174.48 126.215 210.878 123.503 246.45 109.689C282.021 95.8754 318.42 93.163 355.646 101.552C392.871 109.941 429.27 107.228 464.841 93.4146C500.413 79.6008 536.811 76.8884 574.037 85.2774C611.263 93.6663 647.662 90.9539 683.233 77.1401C718.805 63.3262 755.203 60.6138 792.429 69.0028C829.655 77.3918 866.054 74.6793 901.625 60.8655C937.196 47.0517 973.595 44.3392 1010.82 52.7282C1048.05 61.1172 1084.45 58.4048 1120.02 44.5909C1155.59 30.7771 1191.99 28.0647 1229.21 36.4536C1266.44 44.8426 1302.84 42.1302 1338.41 28.3164C1373.98 14.5025 1410.38 11.7901 1447.6 20.1791C1484.83 28.568 1521.23 25.8556 1556.8 12.0418C1592.37 -1.77206 1628.77 -4.48449 1666 3.90449C1703.22 12.2935 1739.62 9.58104 1775.19 -4.2328" stroke="#F2F7FF" stroke-opacity="0.1"/>
<path d="M-408.01 168.12C-372.439 154.306 -336.04 151.593 -298.814 159.982C-261.588 168.371 -225.189 165.659 -189.618 151.845C-154.047 138.031 -117.648 135.319 -80.4222 143.708C-43.1963 152.097 -6.79766 149.384 28.7737 135.571C64.3451 121.757 100.744 119.044 137.97 127.433C175.196 135.822 211.594 133.11 247.166 119.296C282.737 105.482 319.135 102.77 356.361 111.159C393.587 119.548 429.986 116.835 465.557 103.021C501.129 89.2076 537.527 86.4952 574.753 94.8842C611.979 103.273 648.378 100.561 683.949 86.7469C719.52 72.933 755.919 70.2206 793.145 78.6096C830.371 86.9986 866.77 84.2862 902.341 70.4723C937.912 56.6585 974.311 53.946 1011.54 62.335C1048.76 70.724 1085.16 68.0116 1120.73 54.1977C1156.3 40.3839 1192.7 37.6715 1229.93 46.0605C1267.15 54.4494 1303.55 51.737 1339.12 37.9232C1374.7 24.1093 1411.09 21.3969 1448.32 29.7859C1485.55 38.1749 1521.94 35.4624 1557.52 21.6486C1593.09 7.83475 1629.49 5.12232 1666.71 13.5113C1703.94 21.9003 1740.34 19.1879 1775.91 5.37402" stroke="#F2F7FF" stroke-opacity="0.1"/>
<path d="M-407.294 177.727C-371.723 163.913 -335.324 161.2 -298.098 169.589C-260.872 177.978 -224.474 175.266 -188.902 161.452C-153.331 147.638 -116.932 144.926 -79.7064 153.315C-42.4805 161.704 -6.08184 158.991 29.4895 145.178C65.0609 131.364 101.46 128.651 138.685 137.04C175.911 145.429 212.31 142.717 247.881 128.903C283.453 115.089 319.851 112.377 357.077 120.766C394.303 129.155 430.702 126.442 466.273 112.628C501.844 98.8146 538.243 96.1021 575.469 104.491C612.695 112.88 649.094 110.168 684.665 96.3538C720.236 82.54 756.635 79.8276 793.861 88.2165C831.087 96.6055 867.485 93.8931 903.057 80.0792C938.628 66.2654 975.027 63.553 1012.25 71.942C1049.48 80.3309 1085.88 77.6185 1121.45 63.8047C1157.02 49.9908 1193.42 47.2784 1230.64 55.6674C1267.87 64.0564 1304.27 61.3439 1339.84 47.5301C1375.41 33.7163 1411.81 31.0038 1449.04 39.3928C1486.26 47.7818 1522.66 45.0694 1558.23 31.2555C1593.8 17.4417 1630.2 14.7293 1667.43 23.1182C1704.65 31.5072 1741.05 28.7948 1776.62 14.9809" stroke="#F2F7FF" stroke-opacity="0.1" stroke-width="2"/>
<path d="M-406.578 187.333C-371.007 173.519 -334.608 170.807 -297.382 179.196C-260.156 187.585 -223.758 184.873 -188.186 171.059C-152.615 157.245 -116.216 154.532 -78.9906 162.921C-41.7647 171.31 -5.36602 168.598 30.2053 154.784C65.7767 140.97 102.175 138.258 139.401 146.647C176.627 155.036 213.026 152.323 248.597 138.51C284.168 124.696 320.567 121.983 357.793 130.372C395.019 138.761 431.418 136.049 466.989 122.235C502.56 108.421 538.959 105.709 576.185 114.098C613.411 122.487 649.809 119.774 685.381 105.96C720.952 92.1465 757.351 89.4341 794.577 97.8231C831.803 106.212 868.201 103.5 903.773 89.6858C939.344 75.872 975.743 73.1595 1012.97 81.5485C1050.19 89.9375 1086.59 87.2251 1122.16 73.4112C1157.74 59.5974 1194.13 56.885 1231.36 65.274C1268.59 73.6629 1304.98 70.9505 1340.56 57.1367C1376.13 43.3228 1412.53 40.6104 1449.75 48.9994C1486.98 57.3884 1523.38 54.6759 1558.95 40.8621C1594.52 27.0483 1630.92 24.3358 1668.14 32.7248C1705.37 41.1138 1741.77 38.4014 1777.34 24.5875" stroke="#F2F7FF" stroke-opacity="0.1" stroke-width="2"/>
<path d="M-405.862 196.94C-370.291 183.126 -333.892 180.414 -296.667 188.803C-259.441 197.192 -223.042 194.479 -187.471 180.666C-151.899 166.852 -115.501 164.139 -78.2747 172.528C-41.0488 180.917 -4.6502 178.205 30.9212 164.391C66.4925 150.577 102.891 147.865 140.117 156.254C177.343 164.643 213.742 161.93 249.313 148.116C284.884 134.303 321.283 131.59 358.509 139.979C395.735 148.368 432.133 145.656 467.705 131.842C503.276 118.028 539.675 115.316 576.901 123.705C614.127 132.094 650.525 129.381 686.097 115.567C721.668 101.753 758.067 99.0411 795.292 107.43C832.518 115.819 868.917 113.107 904.488 99.2927C940.06 85.4789 976.458 82.7665 1013.68 91.1555C1050.91 99.5444 1087.31 96.832 1122.88 83.0182C1158.45 69.2043 1194.85 66.4919 1232.08 74.8809C1269.3 83.2699 1305.7 80.5574 1341.27 66.7436C1376.84 52.9298 1413.24 50.2173 1450.47 58.6063C1487.69 66.9953 1524.09 64.2829 1559.66 50.469C1595.24 36.6552 1631.63 33.9428 1668.86 42.3317C1706.09 50.7207 1742.48 48.0083 1778.06 34.1944" stroke="#F2F7FF" stroke-opacity="0.1" stroke-width="2"/>
<path d="M-405.146 206.547C-369.575 192.733 -333.176 190.021 -295.95 198.41C-258.724 206.799 -222.326 204.086 -186.754 190.273C-151.183 176.459 -114.784 173.746 -77.5585 182.135C-40.3326 190.524 -3.93393 187.812 31.6374 173.998C67.2088 160.184 103.607 157.472 140.833 165.861C178.059 174.25 214.458 171.537 250.029 157.723C285.601 143.91 321.999 141.197 359.225 149.586C396.451 157.975 432.85 155.263 468.421 141.449C503.992 127.635 540.391 124.923 577.617 133.312C614.843 141.701 651.241 138.988 686.813 125.174C722.384 111.36 758.783 108.648 796.009 117.037C833.235 125.426 869.633 122.714 905.205 108.9C940.776 95.0859 977.175 92.3734 1014.4 100.762C1051.63 109.151 1088.02 106.439 1123.6 92.6251C1159.17 78.8113 1195.57 76.0989 1232.79 84.4878C1270.02 92.8768 1306.42 90.1644 1341.99 76.3505C1377.56 62.5367 1413.96 59.8243 1451.18 68.2133C1488.41 76.6022 1524.81 73.8898 1560.38 60.076C1595.95 46.2621 1632.35 43.5497 1669.58 51.9387C1706.8 60.3277 1743.2 57.6152 1778.77 43.8014" stroke="#F2F7FF" stroke-opacity="0.1" stroke-width="2"/>
<path d="M-404.43 216.154C-368.859 202.34 -332.46 199.627 -295.234 208.016C-258.009 216.405 -221.61 213.693 -186.039 199.879C-150.467 186.065 -114.069 183.353 -76.8426 191.742C-39.6167 200.131 -3.21807 197.418 32.3533 183.604C67.9246 169.791 104.323 167.078 141.549 175.467C178.775 183.856 215.174 181.144 250.745 167.33C286.316 153.516 322.715 150.804 359.941 159.193C397.167 167.582 433.566 164.869 469.137 151.055C504.708 137.241 541.107 134.529 578.333 142.918C615.559 151.307 651.957 148.595 687.529 134.781C723.1 120.967 759.499 118.254 796.725 126.643C833.951 135.032 870.349 132.32 905.921 118.506C941.492 104.692 977.891 101.98 1015.12 110.369C1052.34 118.758 1088.74 116.045 1124.31 102.232C1159.88 88.4177 1196.28 85.7053 1233.51 94.0943C1270.73 102.483 1307.13 99.7708 1342.7 85.957C1378.28 72.1431 1414.67 69.4307 1451.9 77.8197C1489.13 86.2087 1525.52 83.4962 1561.1 69.6824C1596.67 55.8686 1633.07 53.1561 1670.29 61.5451C1707.52 69.9341 1743.92 67.2217 1779.49 53.4078" stroke="#F2F7FF" stroke-opacity="0.1" stroke-width="2"/>
<path d="M-403.715 225.761C-368.143 211.947 -331.745 209.234 -294.519 217.623C-257.293 226.012 -220.894 223.3 -185.323 209.486C-149.751 195.672 -113.353 192.96 -76.1268 201.349C-38.9009 209.738 -2.50225 207.025 33.0691 193.211C68.6405 179.398 105.039 176.685 142.265 185.074C179.491 193.463 215.89 190.751 251.461 176.937C287.032 163.123 323.431 160.411 360.657 168.799C397.883 177.188 434.281 174.476 469.853 160.662C505.424 146.848 541.823 144.136 579.049 152.525C616.275 160.914 652.673 158.201 688.245 144.388C723.816 130.574 760.215 127.861 797.44 136.25C834.666 144.639 871.065 141.927 906.636 128.113C942.208 114.299 978.606 111.587 1015.83 119.976C1053.06 128.365 1089.46 125.652 1125.03 111.838C1160.6 98.0246 1197 95.3122 1234.22 103.701C1271.45 112.09 1307.85 109.378 1343.42 95.5639C1378.99 81.7501 1415.39 79.0376 1452.62 87.4266C1489.84 95.8156 1526.24 93.1032 1561.81 79.2893C1597.38 65.4755 1633.78 62.7631 1671.01 71.152C1708.23 79.541 1744.63 76.8286 1780.2 63.0148" stroke="#F2F7FF" stroke-opacity="0.1" stroke-width="2"/>
<path d="M-402.999 235.367C-367.427 221.554 -331.029 218.841 -293.803 227.23C-256.577 235.619 -220.178 232.907 -184.607 219.093C-149.036 205.279 -112.637 202.567 -75.411 210.956C-38.1851 219.345 -1.78647 216.632 33.7849 202.818C69.3562 189.004 105.755 186.292 142.981 194.681C180.207 203.07 216.605 200.358 252.177 186.544C287.748 172.73 324.147 170.017 361.373 178.406C398.598 186.795 434.997 184.083 470.568 170.269C506.14 156.455 542.538 153.743 579.764 162.132C616.99 170.521 653.389 167.808 688.96 153.995C724.532 140.181 760.93 137.468 798.156 145.857C835.382 154.246 871.781 151.534 907.352 137.72C942.923 123.906 979.322 121.194 1016.55 129.583C1053.77 137.972 1090.17 135.259 1125.74 121.445C1161.32 107.632 1197.71 104.919 1234.94 113.308C1272.17 121.697 1308.56 118.985 1344.14 105.171C1379.71 91.357 1416.11 88.6446 1453.33 97.0336C1490.56 105.423 1526.96 102.71 1562.53 88.8963C1598.1 75.0824 1634.5 72.37 1671.72 80.759C1708.95 89.148 1745.35 86.4356 1780.92 72.6217" stroke="#F2F7FF" stroke-opacity="0.1" stroke-width="2"/>
<path d="M-402.283 244.974C-366.712 231.161 -330.313 228.448 -293.087 236.837C-255.861 245.226 -219.462 242.514 -183.891 228.7C-148.32 214.886 -111.921 212.174 -74.6952 220.563C-37.4692 228.951 -1.07061 226.239 34.5007 212.425C70.0721 198.611 106.471 195.899 143.697 204.288C180.923 212.677 217.321 209.964 252.893 196.151C288.464 182.337 324.863 179.624 362.088 188.013C399.314 196.402 435.713 193.69 471.284 179.876C506.856 166.062 543.254 163.35 580.48 171.739C617.706 180.128 654.105 177.415 689.676 163.602C725.248 149.788 761.646 147.075 798.872 155.464C836.098 163.853 872.497 161.141 908.068 147.327C943.639 133.513 980.038 130.801 1017.26 139.19C1054.49 147.579 1090.89 144.866 1126.46 131.052C1162.03 117.239 1198.43 114.526 1235.66 122.915C1272.88 131.304 1309.28 128.592 1344.85 114.778C1380.42 100.964 1416.82 98.2515 1454.05 106.64C1491.27 115.029 1527.67 112.317 1563.24 98.5032C1598.81 84.6894 1635.21 81.9769 1672.44 90.3659C1709.67 98.7549 1746.06 96.0425 1781.64 82.2286" stroke="#F2F7FF" stroke-opacity="0.1" stroke-width="2"/>
<path d="M-401.567 254.581C-365.996 240.767 -329.597 238.055 -292.371 246.444C-255.145 254.833 -218.747 252.12 -183.175 238.306C-147.604 224.492 -111.205 221.78 -73.9793 230.169C-36.7534 238.558 -0.354786 235.846 35.2166 222.032C70.7879 208.218 107.187 205.505 144.412 213.894C181.638 222.283 218.037 219.571 253.608 205.757C289.18 191.943 325.578 189.231 362.804 197.62C400.03 206.009 436.429 203.296 472 189.483C507.572 175.669 543.97 172.956 581.196 181.345C618.422 189.734 654.821 187.022 690.392 173.208C725.963 159.394 762.362 156.682 799.588 165.071C836.814 173.46 873.212 170.747 908.784 156.933C944.355 143.12 980.754 140.407 1017.98 148.796C1055.21 157.185 1091.6 154.473 1127.18 140.659C1162.75 126.845 1199.15 124.133 1236.37 132.522C1273.6 140.91 1310 138.198 1345.57 124.384C1381.14 110.57 1417.54 107.858 1454.76 116.247C1491.99 124.636 1528.39 121.923 1563.96 108.11C1599.53 94.2958 1635.93 91.5834 1673.16 99.9724C1710.38 108.361 1746.78 105.649 1782.35 91.8351" stroke="#F2F7FF" stroke-opacity="0.1" stroke-width="2"/>
<path d="M-400.851 264.188C-365.279 250.374 -328.881 247.661 -291.655 256.05C-254.429 264.439 -218.03 261.727 -182.459 247.913C-146.888 234.099 -110.489 231.387 -73.2631 239.776C-36.0372 248.165 0.361479 245.452 35.9328 231.639C71.5042 217.825 107.903 215.112 145.129 223.501C182.355 231.89 218.753 229.178 254.325 215.364C289.896 201.55 326.295 198.838 363.521 207.227C400.746 215.616 437.145 212.903 472.716 199.089C508.288 185.276 544.686 182.563 581.912 190.952C619.138 199.341 655.537 196.629 691.108 182.815C726.68 169.001 763.078 166.289 800.304 174.678C837.53 183.067 873.929 180.354 909.5 166.54C945.071 152.726 981.47 150.014 1018.7 158.403C1055.92 166.792 1092.32 164.08 1127.89 150.266C1163.46 136.452 1199.86 133.739 1237.09 142.128C1274.31 150.517 1310.71 147.805 1346.28 133.991C1381.85 120.177 1418.25 117.465 1455.48 125.854C1492.71 134.243 1529.1 131.53 1564.68 117.717C1600.25 103.903 1636.65 101.19 1673.87 109.579C1711.1 117.968 1747.5 115.256 1783.07 101.442" stroke="#F2F7FF" stroke-opacity="0.1" stroke-width="2"/>
<path d="M-400.135 273.795C-364.564 259.981 -328.165 257.268 -290.939 265.657C-253.713 274.046 -217.314 271.334 -181.743 257.52C-146.172 243.706 -109.773 240.994 -72.5472 249.383C-35.3213 257.772 1.07734 255.059 36.6487 241.246C72.2201 227.432 108.619 224.719 145.845 233.108C183.071 241.497 219.469 238.785 255.041 224.971C290.612 211.157 327.01 208.445 364.236 216.834C401.462 225.223 437.861 222.51 473.432 208.696C509.004 194.883 545.402 192.17 582.628 200.559C619.854 208.948 656.253 206.236 691.824 192.422C727.395 178.608 763.794 175.896 801.02 184.285C838.246 192.674 874.645 189.961 910.216 176.147C945.787 162.333 982.186 159.621 1019.41 168.01C1056.64 176.399 1093.04 173.687 1128.61 159.873C1164.18 146.059 1200.58 143.346 1237.8 151.735C1275.03 160.124 1311.43 157.412 1347 143.598C1382.57 129.784 1418.97 127.072 1456.2 135.461C1493.42 143.85 1529.82 141.137 1565.39 127.324C1600.96 113.51 1637.36 110.797 1674.59 119.186C1711.81 127.575 1748.21 124.863 1783.78 111.049" stroke="#F2F7FF" stroke-opacity="0.1" stroke-width="2"/>
<path d="M-399.419 283.401C-363.848 269.587 -327.449 266.875 -290.223 275.264C-252.997 283.653 -216.599 280.94 -181.027 267.127C-145.456 253.313 -109.057 250.6 -71.8314 258.989C-34.6055 267.378 1.79312 264.666 37.3645 250.852C72.9358 237.038 109.334 234.326 146.56 242.715C183.786 251.104 220.185 248.391 255.756 234.577C291.328 220.764 327.726 218.051 364.952 226.44C402.178 234.829 438.577 232.117 474.148 218.303C509.719 204.489 546.118 201.777 583.344 210.166C620.57 218.555 656.968 215.842 692.54 202.028C728.111 188.214 764.51 185.502 801.736 193.891C838.962 202.28 875.36 199.568 910.932 185.754C946.503 171.94 982.902 169.227 1020.13 177.616C1057.35 186.005 1093.75 183.293 1129.32 169.479C1164.89 155.665 1201.29 152.953 1238.52 161.342C1275.75 169.731 1312.14 167.018 1347.72 153.205C1383.29 139.391 1419.69 136.678 1456.91 145.067C1494.14 153.456 1530.54 150.744 1566.11 136.93C1601.68 123.116 1638.08 120.404 1675.3 128.793C1712.53 137.182 1748.93 134.469 1784.5 120.655" stroke="#F2F7FF" stroke-opacity="0.1" stroke-width="2"/>
<path d="M-398.703 293.008C-363.132 279.194 -326.733 276.482 -289.507 284.871C-252.281 293.26 -215.883 290.547 -180.311 276.733C-144.74 262.92 -108.342 260.207 -71.1156 268.596C-33.8897 276.985 2.50894 274.273 38.0803 260.459C73.6516 246.645 110.05 243.933 147.276 252.322C184.502 260.711 220.901 257.998 256.472 244.184C292.043 230.371 328.442 227.658 365.668 236.047C402.894 244.436 439.293 241.724 474.864 227.91C510.435 214.096 546.834 211.384 584.06 219.772C621.286 228.161 657.684 225.449 693.256 211.635C728.827 197.821 765.226 195.109 802.452 203.498C839.677 211.887 876.076 209.174 911.647 195.361C947.219 181.547 983.617 178.834 1020.84 187.223C1058.07 195.612 1094.47 192.9 1130.04 179.086C1165.61 165.272 1202.01 162.56 1239.24 170.949C1276.46 179.338 1312.86 176.625 1348.43 162.811C1384 148.998 1420.4 146.285 1457.63 154.674C1494.85 163.063 1531.25 160.351 1566.82 146.537C1602.39 132.723 1638.79 130.011 1676.02 138.4C1713.24 146.789 1749.64 144.076 1785.21 130.262" stroke="#F2F7FF" stroke-opacity="0.1" stroke-width="2"/>
<path d="M-397.987 302.615C-362.416 288.801 -326.017 286.089 -288.792 294.478C-251.566 302.867 -215.167 300.154 -179.596 286.34C-144.024 272.527 -107.626 269.814 -70.3997 278.203C-33.1738 286.592 3.2248 283.88 38.7962 270.066C74.3675 256.252 110.766 253.54 147.992 261.929C185.218 270.318 221.617 267.605 257.188 253.791C292.759 239.977 329.158 237.265 366.384 245.654C403.61 254.043 440.008 251.331 475.58 237.517C511.151 223.703 547.55 220.99 584.776 229.379C622.002 237.768 658.4 235.056 693.972 221.242C729.543 207.428 765.942 204.716 803.167 213.105C840.393 221.494 876.792 218.781 912.363 204.968C947.935 191.154 984.333 188.441 1021.56 196.83C1058.79 205.219 1095.18 202.507 1130.76 188.693C1166.33 174.879 1202.73 172.167 1239.95 180.556C1277.18 188.945 1313.58 186.232 1349.15 172.418C1384.72 158.605 1421.12 155.892 1458.34 164.281C1495.57 172.67 1531.97 169.958 1567.54 156.144C1603.11 142.33 1639.51 139.618 1676.73 148.007C1713.96 156.396 1750.36 153.683 1785.93 139.869" stroke="#F2F7FF" stroke-opacity="0.1" stroke-width="2"/>
<path d="M-397.272 312.222C-361.7 298.408 -325.302 295.695 -288.076 304.084C-250.85 312.473 -214.451 309.761 -178.88 295.947C-143.308 282.133 -106.91 279.421 -69.684 287.81C-32.4581 296.199 3.94058 293.486 39.5119 279.672C75.0833 265.859 111.482 263.146 148.708 271.535C185.934 279.924 222.332 277.212 257.904 263.398C293.475 249.584 329.874 246.872 367.1 255.261C404.326 263.65 440.724 260.937 476.295 247.123C511.867 233.309 548.265 230.597 585.491 238.986C622.717 247.375 659.116 244.663 694.687 230.849C730.259 217.035 766.657 214.322 803.883 222.711C841.109 231.1 877.508 228.388 913.079 214.574C948.65 200.76 985.049 198.048 1022.27 206.437C1059.5 214.826 1095.9 212.113 1131.47 198.3C1167.04 184.486 1203.44 181.773 1240.67 190.162C1277.89 198.551 1314.29 195.839 1349.86 182.025C1385.43 168.211 1421.83 165.499 1459.06 173.888C1496.28 182.277 1532.68 179.564 1568.25 165.75C1603.83 151.937 1640.22 149.224 1677.45 157.613C1714.68 166.002 1751.07 163.29 1786.65 149.476" stroke="#F2F7FF" stroke-opacity="0.1" stroke-width="2"/>
</svg>
